<svg xmlns="http://www.w3.org/2000/svg" width="512" height="512"><rect x="432" y="256" width="8" height="8" fill="rgba(22,22,22,0.074)"/><rect x="272" y="432" width="8" height="8" fill="rgba(22,22,22,0.059)"/><rect x="464" y="224" width="8" height="8" fill="rgba(22,22,22,0.018)"/><rect x="360" y="424" width="8" height="8" fill="rgba(22,22,22,0.045)"/><rect x="168" y="488" width="8" height="8" fill="rgba(22,22,22,0.052)"/><rect x="104" y="128" width="8" height="8" fill="rgba(22,22,22,0.082)"/><rect x="408" y="152" width="8" height="8" fill="rgba(22,22,22,0.038)"/><rect x="272" y="104" width="8" height="8" fill="rgba(22,22,22,0.045)"/><rect x="72" y="240" width="8" height="8" fill="rgba(22,22,22,0.038)"/><rect x="16" y="432" width="8" height="8" fill="rgba(22,22,22,0.031)"/><rect x="8" y="336" width="8" height="8" fill="rgba(22,22,22,0.059)"/><rect x="248" y="384" width="8" height="8" fill="rgba(22,22,22,0.031)"/><rect x="360" y="232" width="8" height="8" fill="rgba(22,22,22,0.066)"/><rect x="88" y="96" width="8" height="8" fill="rgba(22,22,22,0.082)"/><rect x="272" y="128" width="8" height="8" fill="rgba(22,22,22,0.098)"/><rect x="360" y="112" width="8" height="8" fill="rgba(22,22,22,0.018)"/><rect x="112" y="0" width="8" height="8" fill="rgba(22,22,22,0.059)"/><rect x="88" y="288" width="8" height="8" fill="rgba(22,22,22,0.024)"/><rect x="200" y="448" width="8" height="8" fill="rgba(22,22,22,0.090)"/><rect x="200" y="424" width="8" height="8" fill="rgba(22,22,22,0.024)"/><rect x="96" y="288" width="8" height="8" fill="rgba(22,22,22,0.098)"/><rect x="464" y="304" width="8" height="8" fill="rgba(22,22,22,0.106)"/><rect x="144" y="304" width="8" height="8" fill="rgba(22,22,22,0.038)"/><rect x="304" y="144" width="8" height="8" fill="rgba(22,22,22,0.038)"/><rect x="472" y="320" width="8" height="8" fill="rgba(22,22,22,0.038)"/><rect x="104" y="488" width="8" height="8" fill="rgba(22,22,22,0.045)"/><rect x="368" y="72" width="8" height="8" fill="rgba(22,22,22,0.052)"/><rect x="312" y="144" width="8" height="8" fill="rgba(22,22,22,0.090)"/><rect x="352" y="312" width="8" height="8" fill="rgba(22,22,22,0.098)"/><rect x="16" y="472" width="8" height="8" fill="rgba(22,22,22,0.038)"/><rect x="264" y="32" width="8" height="8" fill="rgba(22,22,22,0.098)"/><rect x="312" y="128" width="8" height="8" fill="rgba(22,22,22,0.066)"/><rect x="144" y="320" width="8" height="8" fill="rgba(22,22,22,0.066)"/><rect x="88" y="136" width="8" height="8" fill="rgba(22,22,22,0.098)"/><rect x="160" y="16" width="8" height="8" fill="rgba(22,22,22,0.106)"/><rect x="248" y="448" width="8" height="8" fill="rgba(22,22,22,0.090)"/><rect x="240" y="368" width="8" height="8" fill="rgba(22,22,22,0.031)"/><rect x="112" y="136" width="8" height="8" fill="rgba(22,22,22,0.106)"/><rect x="504" y="88" width="8" height="8" fill="rgba(22,22,22,0.024)"/><rect x="272" y="248" width="8" height="8" fill="rgba(22,22,22,0.090)"/><rect x="112" y="240" width="8" height="8" fill="rgba(22,22,22,0.098)"/><rect x="184" y="104" width="8" height="8" fill="rgba(22,22,22,0.024)"/><rect x="168" y="352" width="8" height="8" fill="rgba(22,22,22,0.106)"/><rect x="168" y="408" width="8" height="8" fill="rgba(22,22,22,0.074)"/><rect x="328" y="448" width="8" height="8" fill="rgba(22,22,22,0.066)"/><rect x="40" y="48" width="8" height="8" fill="rgba(22,22,22,0.090)"/><rect x="416" y="464" width="8" height="8" fill="rgba(22,22,22,0.106)"/><rect x="72" y="360" width="8" height="8" fill="rgba(22,22,22,0.031)"/><rect x="328" y="128" width="8" height="8" fill="rgba(22,22,22,0.106)"/><rect x="480" y="8" width="8" height="8" fill="rgba(22,22,22,0.052)"/><rect x="8" y="0" width="8" height="8" fill="rgba(22,22,22,0.074)"/><rect x="48" y="168" width="8" height="8" fill="rgba(22,22,22,0.066)"/><rect x="256" y="432" width="8" height="8" fill="rgba(22,22,22,0.066)"/><rect x="384" y="360" width="8" height="8" fill="rgba(22,22,22,0.074)"/><rect x="32" y="296" width="8" height="8" fill="rgba(22,22,22,0.018)"/><rect x="328" y="136" width="8" height="8" fill="rgba(22,22,22,0.031)"/><rect x="248" y="48" width="8" height="8" fill="rgba(22,22,22,0.031)"/><rect x="256" y="120" width="8" height="8" fill="rgba(22,22,22,0.038)"/><rect x="440" y="432" width="8" height="8" fill="rgba(22,22,22,0.038)"/><rect x="336" y="16" width="8" height="8" fill="rgba(22,22,22,0.052)"/><rect x="392" y="360" width="8" height="8" fill="rgba(22,22,22,0.024)"/><rect x="440" y="248" width="8" height="8" fill="rgba(22,22,22,0.082)"/><rect x="360" y="48" width="8" height="8" fill="rgba(22,22,22,0.074)"/><rect x="336" y="344" width="8" height="8" fill="rgba(22,22,22,0.066)"/><rect x="192" y="144" width="8" height="8" fill="rgba(22,22,22,0.052)"/><rect x="304" y="352" width="8" height="8" fill="rgba(22,22,22,0.045)"/><rect x="456" y="200" width="8" height="8" fill="rgba(22,22,22,0.106)"/><rect x="240" y="416" width="8" height="8" fill="rgba(22,22,22,0.090)"/><rect x="232" y="96" width="8" height="8" fill="rgba(22,22,22,0.098)"/><rect x="384" y="80" width="8" height="8" fill="rgba(22,22,22,0.074)"/><rect x="496" y="80" width="8" height="8" fill="rgba(22,22,22,0.024)"/><rect x="112" y="72" width="8" height="8" fill="rgba(22,22,22,0.038)"/><rect x="480" y="192" width="8" height="8" fill="rgba(22,22,22,0.024)"/><rect x="400" y="288" width="8" height="8" fill="rgba(22,22,22,0.066)"/><rect x="208" y="408" width="8" height="8" fill="rgba(22,22,22,0.038)"/><rect x="464" y="256" width="8" height="8" fill="rgba(22,22,22,0.052)"/><rect x="0" y="464" width="8" height="8" fill="rgba(22,22,22,0.045)"/><rect x="152" y="240" width="8" height="8" fill="rgba(22,22,22,0.024)"/><rect x="208" y="192" width="8" height="8" fill="rgba(22,22,22,0.052)"/><rect x="464" y="312" width="8" height="8" fill="rgba(22,22,22,0.052)"/><rect x="416" y="248" width="8" height="8" fill="rgba(22,22,22,0.018)"/><rect x="488" y="264" width="8" height="8" fill="rgba(22,22,22,0.059)"/><rect x="264" y="504" width="8" height="8" fill="rgba(22,22,22,0.098)"/><rect x="416" y="64" width="8" height="8" fill="rgba(22,22,22,0.090)"/><rect x="24" y="304" width="8" height="8" fill="rgba(22,22,22,0.059)"/><rect x="320" y="112" width="8" height="8" fill="rgba(22,22,22,0.045)"/><rect x="376" y="152" width="8" height="8" fill="rgba(22,22,22,0.106)"/><rect x="448" y="320" width="8" height="8" fill="rgba(22,22,22,0.066)"/><rect x="144" y="80" width="8" height="8" fill="rgba(22,22,22,0.038)"/><rect x="256" y="48" width="8" height="8" fill="rgba(22,22,22,0.038)"/><rect x="456" y="344" width="8" height="8" fill="rgba(22,22,22,0.045)"/><rect x="320" y="136" width="8" height="8" fill="rgba(22,22,22,0.018)"/><rect x="16" y="32" width="8" height="8" fill="rgba(22,22,22,0.018)"/><rect x="216" y="416" width="8" height="8" fill="rgba(22,22,22,0.090)"/><rect x="64" y="224" width="8" height="8" fill="rgba(22,22,22,0.074)"/><rect x="72" y="32" width="8" height="8" fill="rgba(22,22,22,0.066)"/><rect x="0" y="272" width="8" height="8" fill="rgba(22,22,22,0.031)"/><rect x="504" y="80" width="8" height="8" fill="rgba(22,22,22,0.090)"/><rect x="480" y="432" width="8" height="8" fill="rgba(22,22,22,0.052)"/><rect x="32" y="488" width="8" height="8" fill="rgba(22,22,22,0.074)"/><rect x="304" y="312" width="8" height="8" fill="rgba(22,22,22,0.052)"/><rect x="456" y="72" width="8" height="8" fill="rgba(22,22,22,0.052)"/><rect x="272" y="144" width="8" height="8" fill="rgba(22,22,22,0.066)"/><rect x="384" y="328" width="8" height="8" fill="rgba(22,22,22,0.066)"/><rect x="224" y="160" width="8" height="8" fill="rgba(22,22,22,0.098)"/><rect x="120" y="272" width="8" height="8" fill="rgba(22,22,22,0.052)"/><rect x="312" y="224" width="8" height="8" fill="rgba(22,22,22,0.106)"/><rect x="392" y="88" width="8" height="8" fill="rgba(22,22,22,0.066)"/><rect x="200" y="184" width="8" height="8" fill="rgba(22,22,22,0.066)"/><rect x="56" y="232" width="8" height="8" fill="rgba(22,22,22,0.045)"/><rect x="496" y="48" width="8" height="8" fill="rgba(22,22,22,0.066)"/><rect x="80" y="152" width="8" height="8" fill="rgba(22,22,22,0.045)"/><rect x="176" y="328" width="8" height="8" fill="rgba(22,22,22,0.038)"/><rect x="8" y="376" width="8" height="8" fill="rgba(22,22,22,0.082)"/><rect x="304" y="448" width="8" height="8" fill="rgba(22,22,22,0.066)"/><rect x="160" y="488" width="8" height="8" fill="rgba(22,22,22,0.082)"/><rect x="64" y="432" width="8" height="8" fill="rgba(22,22,22,0.066)"/><rect x="488" y="328" width="8" height="8" fill="rgba(22,22,22,0.052)"/><rect x="392" y="480" width="8" height="8" fill="rgba(22,22,22,0.090)"/><rect x="392" y="72" width="8" height="8" fill="rgba(22,22,22,0.066)"/><rect x="152" y="368" width="8" height="8" fill="rgba(22,22,22,0.052)"/><rect x="72" y="168" width="8" height="8" fill="rgba(22,22,22,0.031)"/><rect x="32" y="376" width="8" height="8" fill="rgba(22,22,22,0.074)"/><rect x="192" y="72" width="8" height="8" fill="rgba(22,22,22,0.074)"/><rect x="368" y="224" width="8" height="8" fill="rgba(22,22,22,0.031)"/><rect x="432" y="344" width="8" height="8" fill="rgba(22,22,22,0.106)"/><rect x="184" y="296" width="8" height="8" fill="rgba(22,22,22,0.090)"/><rect x="448" y="480" width="8" height="8" fill="rgba(22,22,22,0.074)"/><rect x="504" y="288" width="8" height="8" fill="rgba(22,22,22,0.082)"/><rect x="16" y="264" width="8" height="8" fill="rgba(22,22,22,0.090)"/><rect x="96" y="40" width="8" height="8" fill="rgba(22,22,22,0.052)"/><rect x="496" y="208" width="8" height="8" fill="rgba(22,22,22,0.024)"/><rect x="280" y="32" width="8" height="8" fill="rgba(22,22,22,0.090)"/><rect x="32" y="440" width="8" height="8" fill="rgba(22,22,22,0.045)"/><rect x="240" y="328" width="8" height="8" fill="rgba(22,22,22,0.090)"/><rect x="440" y="448" width="8" height="8" fill="rgba(22,22,22,0.045)"/><rect x="264" y="72" width="8" height="8" fill="rgba(22,22,22,0.082)"/><rect x="344" y="136" width="8" height="8" fill="rgba(22,22,22,0.059)"/><rect x="232" y="24" width="8" height="8" fill="rgba(22,22,22,0.106)"/><rect x="280" y="352" width="8" height="8" fill="rgba(22,22,22,0.031)"/><rect x="448" y="200" width="8" height="8" fill="rgba(22,22,22,0.098)"/><rect x="248" y="240" width="8" height="8" fill="rgba(22,22,22,0.074)"/><rect x="112" y="440" width="8" height="8" fill="rgba(22,22,22,0.098)"/><rect x="408" y="256" width="8" height="8" fill="rgba(22,22,22,0.090)"/><rect x="224" y="344" width="8" height="8" fill="rgba(22,22,22,0.090)"/><rect x="184" y="400" width="8" height="8" fill="rgba(22,22,22,0.052)"/><rect x="224" y="320" width="8" height="8" fill="rgba(22,22,22,0.045)"/><rect x="416" y="432" width="8" height="8" fill="rgba(22,22,22,0.031)"/><rect x="128" y="80" width="8" height="8" fill="rgba(22,22,22,0.059)"/><rect x="224" y="352" width="8" height="8" fill="rgba(22,22,22,0.090)"/><rect x="144" y="216" width="8" height="8" fill="rgba(22,22,22,0.052)"/><rect x="336" y="368" width="8" height="8" fill="rgba(22,22,22,0.018)"/><rect x="80" y="496" width="8" height="8" fill="rgba(22,22,22,0.059)"/><rect x="80" y="440" width="8" height="8" fill="rgba(22,22,22,0.090)"/><rect x="8" y="304" width="8" height="8" fill="rgba(22,22,22,0.031)"/><rect x="136" y="256" width="8" height="8" fill="rgba(22,22,22,0.106)"/><rect x="280" y="136" width="8" height="8" fill="rgba(22,22,22,0.090)"/><rect x="16" y="200" width="8" height="8" fill="rgba(22,22,22,0.038)"/><rect x="176" y="368" width="8" height="8" fill="rgba(22,22,22,0.024)"/><rect x="424" y="392" width="8" height="8" fill="rgba(22,22,22,0.074)"/><rect x="288" y="128" width="8" height="8" fill="rgba(22,22,22,0.018)"/><rect x="304" y="152" width="8" height="8" fill="rgba(22,22,22,0.045)"/><rect x="104" y="80" width="8" height="8" fill="rgba(22,22,22,0.045)"/><rect x="56" y="432" width="8" height="8" fill="rgba(22,22,22,0.031)"/><rect x="368" y="328" width="8" height="8" fill="rgba(22,22,22,0.045)"/><rect x="152" y="504" width="8" height="8" fill="rgba(22,22,22,0.098)"/><rect x="88" y="456" width="8" height="8" fill="rgba(22,22,22,0.024)"/><rect x="456" y="192" width="8" height="8" fill="rgba(22,22,22,0.082)"/><rect x="456" y="144" width="8" height="8" fill="rgba(22,22,22,0.052)"/><rect x="144" y="488" width="8" height="8" fill="rgba(22,22,22,0.038)"/><rect x="72" y="192" width="8" height="8" fill="rgba(22,22,22,0.090)"/><rect x="368" y="440" width="8" height="8" fill="rgba(22,22,22,0.059)"/><rect x="488" y="384" width="8" height="8" fill="rgba(22,22,22,0.098)"/><rect x="128" y="56" width="8" height="8" fill="rgba(22,22,22,0.018)"/><rect x="160" y="232" width="8" height="8" fill="rgba(22,22,22,0.045)"/><rect x="272" y="504" width="8" height="8" fill="rgba(22,22,22,0.018)"/><rect x="504" y="272" width="8" height="8" fill="rgba(22,22,22,0.106)"/><rect x="56" y="264" width="8" height="8" fill="rgba(22,22,22,0.059)"/><rect x="128" y="248" width="8" height="8" fill="rgba(22,22,22,0.038)"/><rect x="40" y="464" width="8" height="8" fill="rgba(22,22,22,0.024)"/><rect x="440" y="176" width="8" height="8" fill="rgba(22,22,22,0.052)"/><rect x="464" y="456" width="8" height="8" fill="rgba(22,22,22,0.038)"/><rect x="168" y="152" width="8" height="8" fill="rgba(22,22,22,0.066)"/><rect x="224" y="464" width="8" height="8" fill="rgba(22,22,22,0.038)"/><rect x="432" y="192" width="8" height="8" fill="rgba(22,22,22,0.052)"/><rect x="416" y="112" width="8" height="8" fill="rgba(22,22,22,0.066)"/><rect x="72" y="424" width="8" height="8" fill="rgba(22,22,22,0.059)"/><rect x="392" y="0" width="8" height="8" fill="rgba(22,22,22,0.018)"/><rect x="144" y="224" width="8" height="8" fill="rgba(22,22,22,0.066)"/><rect x="56" y="128" width="8" height="8" fill="rgba(22,22,22,0.018)"/><rect x="376" y="144" width="8" height="8" fill="rgba(22,22,22,0.082)"/><rect x="296" y="424" width="8" height="8" fill="rgba(22,22,22,0.074)"/><rect x="32" y="400" width="8" height="8" fill="rgba(22,22,22,0.059)"/><rect x="104" y="104" width="8" height="8" fill="rgba(22,22,22,0.052)"/><rect x="128" y="88" width="8" height="8" fill="rgba(22,22,22,0.031)"/><rect x="432" y="248" width="8" height="8" fill="rgba(22,22,22,0.074)"/><rect x="160" y="24" width="8" height="8" fill="rgba(22,22,22,0.038)"/><rect x="208" y="376" width="8" height="8" fill="rgba(22,22,22,0.082)"/><rect x="112" y="448" width="8" height="8" fill="rgba(22,22,22,0.024)"/><rect x="424" y="304" width="8" height="8" fill="rgba(22,22,22,0.098)"/><rect x="128" y="400" width="8" height="8" fill="rgba(22,22,22,0.106)"/><rect x="504" y="368" width="8" height="8" fill="rgba(22,22,22,0.038)"/><rect x="64" y="208" width="8" height="8" fill="rgba(22,22,22,0.018)"/><rect x="104" y="424" width="8" height="8" fill="rgba(22,22,22,0.059)"/><rect x="56" y="280" width="8" height="8" fill="rgba(22,22,22,0.074)"/><rect x="96" y="112" width="8" height="8" fill="rgba(22,22,22,0.031)"/><rect x="224" y="496" width="8" height="8" fill="rgba(22,22,22,0.038)"/><rect x="8" y="456" width="8" height="8" fill="rgba(22,22,22,0.106)"/><rect x="40" y="416" width="8" height="8" fill="rgba(22,22,22,0.090)"/><rect x="440" y="264" width="8" height="8" fill="rgba(22,22,22,0.074)"/><rect x="184" y="464" width="8" height="8" fill="rgba(22,22,22,0.066)"/><rect x="56" y="312" width="8" height="8" fill="rgba(22,22,22,0.038)"/><rect x="56" y="320" width="8" height="8" fill="rgba(22,22,22,0.106)"/><rect x="208" y="344" width="8" height="8" fill="rgba(22,22,22,0.074)"/><rect x="320" y="416" width="8" height="8" fill="rgba(22,22,22,0.031)"/><rect x="360" y="400" width="8" height="8" fill="rgba(22,22,22,0.074)"/><rect x="24" y="192" width="8" height="8" fill="rgba(22,22,22,0.106)"/><rect x="168" y="376" width="8" height="8" fill="rgba(22,22,22,0.031)"/><rect x="248" y="264" width="8" height="8" fill="rgba(22,22,22,0.031)"/><rect x="344" y="160" width="8" height="8" fill="rgba(22,22,22,0.052)"/><rect x="416" y="272" width="8" height="8" fill="rgba(22,22,22,0.045)"/><rect x="352" y="168" width="8" height="8" fill="rgba(22,22,22,0.052)"/><rect x="448" y="360" width="8" height="8" fill="rgba(22,22,22,0.090)"/><rect x="352" y="128" width="8" height="8" fill="rgba(22,22,22,0.031)"/><rect x="64" y="368" width="8" height="8" fill="rgba(22,22,22,0.052)"/><rect x="208" y="488" width="8" height="8" fill="rgba(22,22,22,0.038)"/><rect x="136" y="48" width="8" height="8" fill="rgba(22,22,22,0.038)"/><rect x="240" y="144" width="8" height="8" fill="rgba(22,22,22,0.082)"/><rect x="328" y="264" width="8" height="8" fill="rgba(22,22,22,0.059)"/><rect x="280" y="80" width="8" height="8" fill="rgba(22,22,22,0.082)"/><rect x="48" y="312" width="8" height="8" fill="rgba(22,22,22,0.098)"/><rect x="184" y="232" width="8" height="8" fill="rgba(22,22,22,0.106)"/><rect x="440" y="488" width="8" height="8" fill="rgba(22,22,22,0.031)"/><rect x="192" y="464" width="8" height="8" fill="rgba(22,22,22,0.106)"/><rect x="264" y="112" width="8" height="8" fill="rgba(22,22,22,0.082)"/><rect x="288" y="328" width="8" height="8" fill="rgba(22,22,22,0.066)"/><rect x="496" y="216" width="8" height="8" fill="rgba(22,22,22,0.038)"/><rect x="464" y="216" width="8" height="8" fill="rgba(22,22,22,0.024)"/><rect x="280" y="344" width="8" height="8" fill="rgba(22,22,22,0.074)"/><rect x="288" y="176" width="8" height="8" fill="rgba(22,22,22,0.045)"/><rect x="184" y="192" width="8" height="8" fill="rgba(22,22,22,0.024)"/><rect x="440" y="456" width="8" height="8" fill="rgba(22,22,22,0.031)"/><rect x="488" y="432" width="8" height="8" fill="rgba(22,22,22,0.106)"/><rect x="168" y="8" width="8" height="8" fill="rgba(22,22,22,0.038)"/><rect x="320" y="184" width="8" height="8" fill="rgba(22,22,22,0.098)"/><rect x="192" y="304" width="8" height="8" fill="rgba(22,22,22,0.038)"/><rect x="184" y="456" width="8" height="8" fill="rgba(22,22,22,0.106)"/><rect x="136" y="312" width="8" height="8" fill="rgba(22,22,22,0.074)"/><rect x="416" y="504" width="8" height="8" fill="rgba(22,22,22,0.038)"/><rect x="216" y="168" width="8" height="8" fill="rgba(22,22,22,0.018)"/><rect x="280" y="16" width="8" height="8" fill="rgba(22,22,22,0.074)"/><rect x="112" y="24" width="8" height="8" fill="rgba(22,22,22,0.106)"/><rect x="392" y="216" width="8" height="8" fill="rgba(22,22,22,0.074)"/><rect x="120" y="432" width="8" height="8" fill="rgba(22,22,22,0.052)"/><rect x="88" y="336" width="8" height="8" fill="rgba(22,22,22,0.074)"/><rect x="344" y="472" width="8" height="8" fill="rgba(22,22,22,0.066)"/><rect x="208" y="208" width="8" height="8" fill="rgba(22,22,22,0.052)"/><rect x="384" y="112" width="8" height="8" fill="rgba(22,22,22,0.082)"/><rect x="448" y="80" width="8" height="8" fill="rgba(22,22,22,0.052)"/><rect x="448" y="88" width="8" height="8" fill="rgba(22,22,22,0.066)"/><rect x="32" y="312" width="8" height="8" fill="rgba(22,22,22,0.090)"/><rect x="16" y="456" width="8" height="8" fill="rgba(22,22,22,0.059)"/><rect x="88" y="352" width="8" height="8" fill="rgba(22,22,22,0.090)"/><rect x="440" y="168" width="8" height="8" fill="rgba(22,22,22,0.059)"/><rect x="264" y="280" width="8" height="8" fill="rgba(22,22,22,0.031)"/><rect x="448" y="248" width="8" height="8" fill="rgba(22,22,22,0.090)"/><rect x="128" y="352" width="8" height="8" fill="rgba(22,22,22,0.045)"/><rect x="232" y="224" width="8" height="8" fill="rgba(22,22,22,0.045)"/><rect x="400" y="208" width="8" height="8" fill="rgba(22,22,22,0.024)"/><rect x="32" y="496" width="8" height="8" fill="rgba(22,22,22,0.059)"/><rect x="504" y="376" width="8" height="8" fill="rgba(22,22,22,0.052)"/><rect x="392" y="256" width="8" height="8" fill="rgba(22,22,22,0.031)"/><rect x="248" y="192" width="8" height="8" fill="rgba(22,22,22,0.038)"/><rect x="152" y="16" width="8" height="8" fill="rgba(22,22,22,0.045)"/><rect x="392" y="424" width="8" height="8" fill="rgba(22,22,22,0.052)"/><rect x="376" y="216" width="8" height="8" fill="rgba(22,22,22,0.018)"/><rect x="24" y="256" width="8" height="8" fill="rgba(22,22,22,0.031)"/><rect x="408" y="224" width="8" height="8" fill="rgba(22,22,22,0.045)"/><rect x="416" y="296" width="8" height="8" fill="rgba(22,22,22,0.090)"/><rect x="144" y="472" width="8" height="8" fill="rgba(22,22,22,0.098)"/><rect x="400" y="56" width="8" height="8" fill="rgba(22,22,22,0.045)"/><rect x="56" y="48" width="8" height="8" fill="rgba(22,22,22,0.074)"/><rect x="88" y="432" width="8" height="8" fill="rgba(22,22,22,0.106)"/><rect x="368" y="40" width="8" height="8" fill="rgba(22,22,22,0.106)"/><rect x="32" y="168" width="8" height="8" fill="rgba(22,22,22,0.038)"/><rect x="64" y="120" width="8" height="8" fill="rgba(22,22,22,0.031)"/><rect x="144" y="56" width="8" height="8" fill="rgba(22,22,22,0.038)"/><rect x="240" y="0" width="8" height="8" fill="rgba(22,22,22,0.052)"/><rect x="88" y="152" width="8" height="8" fill="rgba(22,22,22,0.018)"/><rect x="0" y="360" width="8" height="8" fill="rgba(22,22,22,0.052)"/><rect x="480" y="424" width="8" height="8" fill="rgba(22,22,22,0.024)"/><rect x="384" y="296" width="8" height="8" fill="rgba(22,22,22,0.090)"/><rect x="472" y="408" width="8" height="8" fill="rgba(22,22,22,0.090)"/><rect x="408" y="328" width="8" height="8" fill="rgba(22,22,22,0.059)"/><rect x="488" y="288" width="8" height="8" fill="rgba(22,22,22,0.090)"/><rect x="240" y="104" width="8" height="8" fill="rgba(22,22,22,0.082)"/><rect x="448" y="408" width="8" height="8" fill="rgba(22,22,22,0.038)"/><rect x="240" y="304" width="8" height="8" fill="rgba(22,22,22,0.038)"/><rect x="72" y="448" width="8" height="8" fill="rgba(22,22,22,0.052)"/><rect x="408" y="16" width="8" height="8" fill="rgba(22,22,22,0.018)"/><rect x="128" y="504" width="8" height="8" fill="rgba(22,22,22,0.052)"/><rect x="48" y="216" width="8" height="8" fill="rgba(22,22,22,0.018)"/><rect x="144" y="408" width="8" height="8" fill="rgba(22,22,22,0.098)"/><rect x="384" y="240" width="8" height="8" fill="rgba(22,22,22,0.059)"/><rect x="112" y="48" width="8" height="8" fill="rgba(22,22,22,0.052)"/><rect x="264" y="192" width="8" height="8" fill="rgba(22,22,22,0.074)"/><rect x="400" y="176" width="8" height="8" fill="rgba(22,22,22,0.090)"/><rect x="376" y="64" width="8" height="8" fill="rgba(22,22,22,0.106)"/><rect x="32" y="40" width="8" height="8" fill="rgba(22,22,22,0.045)"/><rect x="72" y="232" width="8" height="8" fill="rgba(22,22,22,0.098)"/><rect x="504" y="56" width="8" height="8" fill="rgba(22,22,22,0.052)"/><rect x="168" y="416" width="8" height="8" fill="rgba(22,22,22,0.098)"/><rect x="328" y="232" width="8" height="8" fill="rgba(22,22,22,0.082)"/><rect x="80" y="160" width="8" height="8" fill="rgba(22,22,22,0.074)"/><rect x="496" y="432" width="8" height="8" fill="rgba(22,22,22,0.059)"/><rect x="312" y="424" width="8" height="8" fill="rgba(22,22,22,0.074)"/><rect x="384" y="72" width="8" height="8" fill="rgba(22,22,22,0.106)"/><rect x="176" y="240" width="8" height="8" fill="rgba(22,22,22,0.059)"/><rect x="296" y="168" width="8" height="8" fill="rgba(22,22,22,0.090)"/><rect x="296" y="120" width="8" height="8" fill="rgba(22,22,22,0.045)"/><rect x="208" y="160" width="8" height="8" fill="rgba(22,22,22,0.045)"/><rect x="488" y="376" width="8" height="8" fill="rgba(22,22,22,0.090)"/><rect x="376" y="320" width="8" height="8" fill="rgba(22,22,22,0.106)"/><rect x="248" y="432" width="8" height="8" fill="rgba(22,22,22,0.045)"/><rect x="0" y="216" width="8" height="8" fill="rgba(22,22,22,0.024)"/><rect x="400" y="456" width="8" height="8" fill="rgba(22,22,22,0.018)"/><rect x="128" y="480" width="8" height="8" fill="rgba(22,22,22,0.074)"/><rect x="56" y="288" width="8" height="8" fill="rgba(22,22,22,0.052)"/><rect x="64" y="104" width="8" height="8" fill="rgba(22,22,22,0.074)"/><rect x="200" y="456" width="8" height="8" fill="rgba(22,22,22,0.074)"/><rect x="96" y="96" width="8" height="8" fill="rgba(22,22,22,0.098)"/><rect x="120" y="504" width="8" height="8" fill="rgba(22,22,22,0.074)"/><rect x="280" y="120" width="8" height="8" fill="rgba(22,22,22,0.082)"/><rect x="96" y="352" width="8" height="8" fill="rgba(22,22,22,0.059)"/><rect x="144" y="432" width="8" height="8" fill="rgba(22,22,22,0.018)"/><rect x="496" y="456" width="8" height="8" fill="rgba(22,22,22,0.031)"/><rect x="160" y="432" width="8" height="8" fill="rgba(22,22,22,0.074)"/><rect x="152" y="424" width="8" height="8" fill="rgba(22,22,22,0.045)"/><rect x="272" y="472" width="8" height="8" fill="rgba(22,22,22,0.024)"/><rect x="328" y="400" width="8" height="8" fill="rgba(22,22,22,0.052)"/><rect x="328" y="376" width="8" height="8" fill="rgba(22,22,22,0.066)"/><rect x="32" y="72" width="8" height="8" fill="rgba(22,22,22,0.066)"/><rect x="456" y="448" width="8" height="8" fill="rgba(22,22,22,0.052)"/><rect x="344" y="56" width="8" height="8" fill="rgba(22,22,22,0.045)"/><rect x="440" y="232" width="8" height="8" fill="rgba(22,22,22,0.106)"/><rect x="272" y="32" width="8" height="8" fill="rgba(22,22,22,0.098)"/><rect x="328" y="248" width="8" height="8" fill="rgba(22,22,22,0.018)"/><rect x="56" y="200" width="8" height="8" fill="rgba(22,22,22,0.059)"/><rect x="104" y="224" width="8" height="8" fill="rgba(22,22,22,0.045)"/><rect x="8" y="448" width="8" height="8" fill="rgba(22,22,22,0.074)"/><rect x="144" y="48" width="8" height="8" fill="rgba(22,22,22,0.090)"/><rect x="144" y="296" width="8" height="8" fill="rgba(22,22,22,0.052)"/><rect x="144" y="232" width="8" height="8" fill="rgba(22,22,22,0.066)"/><rect x="16" y="304" width="8" height="8" fill="rgba(22,22,22,0.059)"/><rect x="400" y="264" width="8" height="8" fill="rgba(22,22,22,0.066)"/><rect x="408" y="464" width="8" height="8" fill="rgba(22,22,22,0.038)"/><rect x="136" y="56" width="8" height="8" fill="rgba(22,22,22,0.098)"/><rect x="64" y="136" width="8" height="8" fill="rgba(22,22,22,0.059)"/><rect x="448" y="176" width="8" height="8" fill="rgba(22,22,22,0.066)"/><rect x="64" y="504" width="8" height="8" fill="rgba(22,22,22,0.059)"/><rect x="176" y="456" width="8" height="8" fill="rgba(22,22,22,0.038)"/><rect x="296" y="216" width="8" height="8" fill="rgba(22,22,22,0.066)"/><rect x="336" y="112" width="8" height="8" fill="rgba(22,22,22,0.059)"/><rect x="24" y="176" width="8" height="8" fill="rgba(22,22,22,0.082)"/><rect x="504" y="240" width="8" height="8" fill="rgba(22,22,22,0.074)"/><rect x="464" y="144" width="8" height="8" fill="rgba(22,22,22,0.024)"/><rect x="192" y="416" width="8" height="8" fill="rgba(22,22,22,0.031)"/><rect x="176" y="112" width="8" height="8" fill="rgba(22,22,22,0.090)"/><rect x="160" y="216" width="8" height="8" fill="rgba(22,22,22,0.082)"/><rect x="368" y="80" width="8" height="8" fill="rgba(22,22,22,0.066)"/><rect x="168" y="16" width="8" height="8" fill="rgba(22,22,22,0.098)"/><rect x="232" y="48" width="8" height="8" fill="rgba(22,22,22,0.106)"/><rect x="272" y="88" width="8" height="8" fill="rgba(22,22,22,0.052)"/><rect x="384" y="168" width="8" height="8" fill="rgba(22,22,22,0.024)"/><rect x="328" y="488" width="8" height="8" fill="rgba(22,22,22,0.024)"/><rect x="136" y="352" width="8" height="8" fill="rgba(22,22,22,0.038)"/><rect x="256" y="488" width="8" height="8" fill="rgba(22,22,22,0.059)"/><rect x="288" y="216" width="8" height="8" fill="rgba(22,22,22,0.074)"/><rect x="272" y="464" width="8" height="8" fill="rgba(22,22,22,0.038)"/><rect x="160" y="128" width="8" height="8" fill="rgba(22,22,22,0.024)"/><rect x="192" y="376" width="8" height="8" fill="rgba(22,22,22,0.031)"/><rect x="248" y="288" width="8" height="8" fill="rgba(22,22,22,0.090)"/><rect x="392" y="48" width="8" height="8" fill="rgba(22,22,22,0.082)"/><rect x="48" y="288" width="8" height="8" fill="rgba(22,22,22,0.082)"/><rect x="56" y="64" width="8" height="8" fill="rgba(22,22,22,0.059)"/><rect x="408" y="424" width="8" height="8" fill="rgba(22,22,22,0.038)"/><rect x="248" y="80" width="8" height="8" fill="rgba(22,22,22,0.074)"/><rect x="280" y="288" width="8" height="8" fill="rgba(22,22,22,0.082)"/><rect x="440" y="360" width="8" height="8" fill="rgba(22,22,22,0.038)"/><rect x="232" y="184" width="8" height="8" fill="rgba(22,22,22,0.045)"/><rect x="64" y="448" width="8" height="8" fill="rgba(22,22,22,0.106)"/><rect x="56" y="8" width="8" height="8" fill="rgba(22,22,22,0.038)"/><rect x="120" y="352" width="8" height="8" fill="rgba(22,22,22,0.038)"/><rect x="312" y="448" width="8" height="8" fill="rgba(22,22,22,0.098)"/><rect x="504" y="440" width="8" height="8" fill="rgba(22,22,22,0.082)"/><rect x="296" y="448" width="8" height="8" fill="rgba(22,22,22,0.106)"/><rect x="160" y="72" width="8" height="8" fill="rgba(22,22,22,0.066)"/><rect x="448" y="192" width="8" height="8" fill="rgba(22,22,22,0.018)"/><rect x="472" y="96" width="8" height="8" fill="rgba(22,22,22,0.024)"/><rect x="232" y="304" width="8" height="8" fill="rgba(22,22,22,0.106)"/><rect x="456" y="256" width="8" height="8" fill="rgba(22,22,22,0.090)"/><rect x="160" y="504" width="8" height="8" fill="rgba(22,22,22,0.066)"/><rect x="16" y="440" width="8" height="8" fill="rgba(22,22,22,0.066)"/><rect x="184" y="384" width="8" height="8" fill="rgba(22,22,22,0.098)"/><rect x="88" y="248" width="8" height="8" fill="rgba(22,22,22,0.052)"/><rect x="168" y="320" width="8" height="8" fill="rgba(22,22,22,0.090)"/><rect x="480" y="48" width="8" height="8" fill="rgba(22,22,22,0.024)"/><rect x="168" y="64" width="8" height="8" fill="rgba(22,22,22,0.031)"/><rect x="160" y="40" width="8" height="8" fill="rgba(22,22,22,0.098)"/><rect x="224" y="192" width="8" height="8" fill="rgba(22,22,22,0.024)"/><rect x="376" y="336" width="8" height="8" fill="rgba(22,22,22,0.090)"/><rect x="24" y="480" width="8" height="8" fill="rgba(22,22,22,0.106)"/><rect x="64" y="16" width="8" height="8" fill="rgba(22,22,22,0.052)"/><rect x="216" y="424" width="8" height="8" fill="rgba(22,22,22,0.024)"/><rect x="0" y="128" width="8" height="8" fill="rgba(22,22,22,0.066)"/><rect x="400" y="368" width="8" height="8" fill="rgba(22,22,22,0.052)"/><rect x="32" y="352" width="8" height="8" fill="rgba(22,22,22,0.045)"/><rect x="272" y="176" width="8" height="8" fill="rgba(22,22,22,0.098)"/><rect x="128" y="360" width="8" height="8" fill="rgba(22,22,22,0.024)"/><rect x="0" y="280" width="8" height="8" fill="rgba(22,22,22,0.045)"/><rect x="128" y="432" width="8" height="8" fill="rgba(22,22,22,0.018)"/><rect x="128" y="24" width="8" height="8" fill="rgba(22,22,22,0.038)"/><rect x="384" y="456" width="8" height="8" fill="rgba(22,22,22,0.031)"/><rect x="240" y="120" width="8" height="8" fill="rgba(22,22,22,0.024)"/><rect x="184" y="288" width="8" height="8" fill="rgba(22,22,22,0.045)"/><rect x="72" y="400" width="8" height="8" fill="rgba(22,22,22,0.059)"/><rect x="288" y="240" width="8" height="8" fill="rgba(22,22,22,0.031)"/><rect x="344" y="224" width="8" height="8" fill="rgba(22,22,22,0.018)"/><rect x="136" y="344" width="8" height="8" fill="rgba(22,22,22,0.074)"/><rect x="200" y="328" width="8" height="8" fill="rgba(22,22,22,0.098)"/><rect x="336" y="240" width="8" height="8" fill="rgba(22,22,22,0.052)"/><rect x="24" y="112" width="8" height="8" fill="rgba(22,22,22,0.066)"/><rect x="240" y="344" width="8" height="8" fill="rgba(22,22,22,0.098)"/><rect x="328" y="200" width="8" height="8" fill="rgba(22,22,22,0.052)"/><rect x="128" y="104" width="8" height="8" fill="rgba(22,22,22,0.082)"/><rect x="304" y="384" width="8" height="8" fill="rgba(22,22,22,0.018)"/><rect x="400" y="120" width="8" height="8" fill="rgba(22,22,22,0.031)"/><rect x="280" y="216" width="8" height="8" fill="rgba(22,22,22,0.082)"/><rect x="400" y="160" width="8" height="8" fill="rgba(22,22,22,0.074)"/><rect x="112" y="160" width="8" height="8" fill="rgba(22,22,22,0.024)"/><rect x="0" y="72" width="8" height="8" fill="rgba(22,22,22,0.074)"/><rect x="184" y="320" width="8" height="8" fill="rgba(22,22,22,0.098)"/><rect x="336" y="480" width="8" height="8" fill="rgba(22,22,22,0.038)"/><rect x="288" y="208" width="8" height="8" fill="rgba(22,22,22,0.082)"/><rect x="376" y="48" width="8" height="8" fill="rgba(22,22,22,0.059)"/><rect x="288" y="352" width="8" height="8" fill="rgba(22,22,22,0.098)"/><rect x="424" y="0" width="8" height="8" fill="rgba(22,22,22,0.024)"/><rect x="360" y="440" width="8" height="8" fill="rgba(22,22,22,0.098)"/><rect x="208" y="336" width="8" height="8" fill="rgba(22,22,22,0.106)"/><rect x="112" y="272" width="8" height="8" fill="rgba(22,22,22,0.052)"/><rect x="200" y="400" width="8" height="8" fill="rgba(22,22,22,0.098)"/><rect x="328" y="56" width="8" height="8" fill="rgba(22,22,22,0.052)"/><rect x="440" y="24" width="8" height="8" fill="rgba(22,22,22,0.082)"/><rect x="368" y="136" width="8" height="8" fill="rgba(22,22,22,0.066)"/><rect x="440" y="8" width="8" height="8" fill="rgba(22,22,22,0.074)"/><rect x="368" y="0" width="8" height="8" fill="rgba(22,22,22,0.038)"/><rect x="352" y="136" width="8" height="8" fill="rgba(22,22,22,0.106)"/><rect x="168" y="232" width="8" height="8" fill="rgba(22,22,22,0.074)"/><rect x="376" y="392" width="8" height="8" fill="rgba(22,22,22,0.106)"/><rect x="272" y="408" width="8" height="8" fill="rgba(22,22,22,0.031)"/><rect x="400" y="144" width="8" height="8" fill="rgba(22,22,22,0.052)"/><rect x="104" y="200" width="8" height="8" fill="rgba(22,22,22,0.098)"/><rect x="312" y="208" width="8" height="8" fill="rgba(22,22,22,0.074)"/><rect x="48" y="480" width="8" height="8" fill="rgba(22,22,22,0.018)"/><rect x="200" y="16" width="8" height="8" fill="rgba(22,22,22,0.074)"/><rect x="184" y="432" width="8" height="8" fill="rgba(22,22,22,0.052)"/><rect x="368" y="408" width="8" height="8" fill="rgba(22,22,22,0.074)"/><rect x="472" y="440" width="8" height="8" fill="rgba(22,22,22,0.018)"/><rect x="352" y="8" width="8" height="8" fill="rgba(22,22,22,0.066)"/><rect x="168" y="272" width="8" height="8" fill="rgba(22,22,22,0.059)"/><rect x="368" y="504" width="8" height="8" fill="rgba(22,22,22,0.024)"/><rect x="96" y="448" width="8" height="8" fill="rgba(22,22,22,0.038)"/><rect x="336" y="264" width="8" height="8" fill="rgba(22,22,22,0.082)"/><rect x="0" y="144" width="8" height="8" fill="rgba(22,22,22,0.052)"/><rect x="488" y="144" width="8" height="8" fill="rgba(22,22,22,0.052)"/><rect x="184" y="24" width="8" height="8" fill="rgba(22,22,22,0.024)"/><rect x="320" y="488" width="8" height="8" fill="rgba(22,22,22,0.098)"/><rect x="352" y="416" width="8" height="8" fill="rgba(22,22,22,0.018)"/><rect x="0" y="448" width="8" height="8" fill="rgba(22,22,22,0.045)"/><rect x="248" y="168" width="8" height="8" fill="rgba(22,22,22,0.066)"/></svg>