<svg xmlns="http://www.w3.org/2000/svg" width="512" height="512"><rect x="472" y="88" width="8" height="8" fill="rgba(255,255,255,0.205)"/><rect x="384" y="96" width="8" height="8" fill="rgba(255,255,255,0.058)"/><rect x="464" y="392" width="8" height="8" fill="rgba(255,255,255,0.205)"/><rect x="112" y="376" width="8" height="8" fill="rgba(255,255,255,0.130)"/><rect x="88" y="384" width="8" height="8" fill="rgba(255,255,255,0.115)"/><rect x="112" y="64" width="8" height="8" fill="rgba(255,255,255,0.220)"/><rect x="40" y="448" width="8" height="8" fill="rgba(255,255,255,0.045)"/><rect x="440" y="456" width="8" height="8" fill="rgba(255,255,255,0.086)"/><rect x="504" y="48" width="8" height="8" fill="rgba(255,255,255,0.160)"/><rect x="88" y="408" width="8" height="8" fill="rgba(255,255,255,0.220)"/><rect x="16" y="288" width="8" height="8" fill="rgba(255,255,255,0.086)"/><rect x="104" y="232" width="8" height="8" fill="rgba(255,255,255,0.175)"/><rect x="0" y="48" width="8" height="8" fill="rgba(255,255,255,0.115)"/><rect x="168" y="32" width="8" height="8" fill="rgba(255,255,255,0.130)"/><rect x="48" y="0" width="8" height="8" fill="rgba(255,255,255,0.205)"/><rect x="288" y="112" width="8" height="8" fill="rgba(255,255,255,0.045)"/><rect x="80" y="232" width="8" height="8" fill="rgba(255,255,255,0.145)"/><rect x="208" y="440" width="8" height="8" fill="rgba(255,255,255,0.190)"/><rect x="0" y="384" width="8" height="8" fill="rgba(255,255,255,0.072)"/><rect x="272" y="224" width="8" height="8" fill="rgba(255,255,255,0.220)"/><rect x="104" y="344" width="8" height="8" fill="rgba(255,255,255,0.072)"/><rect x="312" y="88" width="8" height="8" fill="rgba(255,255,255,0.205)"/><rect x="400" y="440" width="8" height="8" fill="rgba(255,255,255,0.115)"/><rect x="176" y="496" width="8" height="8" fill="rgba(255,255,255,0.100)"/><rect x="480" y="88" width="8" height="8" fill="rgba(255,255,255,0.190)"/><rect x="40" y="192" width="8" height="8" fill="rgba(255,255,255,0.145)"/><rect x="16" y="384" width="8" height="8" fill="rgba(255,255,255,0.115)"/><rect x="280" y="272" width="8" height="8" fill="rgba(255,255,255,0.072)"/><rect x="376" y="280" width="8" height="8" fill="rgba(255,255,255,0.086)"/><rect x="280" y="168" width="8" height="8" fill="rgba(255,255,255,0.100)"/><rect x="368" y="416" width="8" height="8" fill="rgba(255,255,255,0.072)"/><rect x="312" y="456" width="8" height="8" fill="rgba(255,255,255,0.175)"/><rect x="336" y="416" width="8" height="8" fill="rgba(255,255,255,0.115)"/><rect x="112" y="392" width="8" height="8" fill="rgba(255,255,255,0.045)"/><rect x="456" y="136" width="8" height="8" fill="rgba(255,255,255,0.115)"/><rect x="120" y="144" width="8" height="8" fill="rgba(255,255,255,0.190)"/><rect x="0" y="144" width="8" height="8" fill="rgba(255,255,255,0.130)"/><rect x="128" y="88" width="8" height="8" fill="rgba(255,255,255,0.190)"/><rect x="80" y="72" width="8" height="8" fill="rgba(255,255,255,0.086)"/><rect x="208" y="304" width="8" height="8" fill="rgba(255,255,255,0.205)"/><rect x="368" y="72" width="8" height="8" fill="rgba(255,255,255,0.058)"/><rect x="88" y="376" width="8" height="8" fill="rgba(255,255,255,0.130)"/><rect x="136" y="416" width="8" height="8" fill="rgba(255,255,255,0.130)"/><rect x="40" y="104" width="8" height="8" fill="rgba(255,255,255,0.190)"/><rect x="0" y="232" width="8" height="8" fill="rgba(255,255,255,0.115)"/><rect x="272" y="328" width="8" height="8" fill="rgba(255,255,255,0.086)"/><rect x="280" y="104" width="8" height="8" fill="rgba(255,255,255,0.220)"/><rect x="400" y="8" width="8" height="8" fill="rgba(255,255,255,0.115)"/><rect x="0" y="400" width="8" height="8" fill="rgba(255,255,255,0.115)"/><rect x="400" y="296" width="8" height="8" fill="rgba(255,255,255,0.130)"/><rect x="232" y="96" width="8" height="8" fill="rgba(255,255,255,0.045)"/><rect x="360" y="288" width="8" height="8" fill="rgba(255,255,255,0.190)"/><rect x="200" y="232" width="8" height="8" fill="rgba(255,255,255,0.190)"/><rect x="32" y="384" width="8" height="8" fill="rgba(255,255,255,0.220)"/><rect x="112" y="32" width="8" height="8" fill="rgba(255,255,255,0.100)"/><rect x="256" y="496" width="8" height="8" fill="rgba(255,255,255,0.058)"/><rect x="304" y="304" width="8" height="8" fill="rgba(255,255,255,0.205)"/><rect x="448" y="0" width="8" height="8" fill="rgba(255,255,255,0.190)"/><rect x="480" y="368" width="8" height="8" fill="rgba(255,255,255,0.175)"/><rect x="472" y="112" width="8" height="8" fill="rgba(255,255,255,0.220)"/><rect x="328" y="24" width="8" height="8" fill="rgba(255,255,255,0.072)"/><rect x="64" y="472" width="8" height="8" fill="rgba(255,255,255,0.086)"/><rect x="496" y="496" width="8" height="8" fill="rgba(255,255,255,0.145)"/><rect x="64" y="400" width="8" height="8" fill="rgba(255,255,255,0.160)"/><rect x="256" y="256" width="8" height="8" fill="rgba(255,255,255,0.130)"/><rect x="16" y="208" width="8" height="8" fill="rgba(255,255,255,0.190)"/><rect x="304" y="168" width="8" height="8" fill="rgba(255,255,255,0.086)"/><rect x="32" y="440" width="8" height="8" fill="rgba(255,255,255,0.045)"/><rect x="496" y="272" width="8" height="8" fill="rgba(255,255,255,0.190)"/><rect x="424" y="80" width="8" height="8" fill="rgba(255,255,255,0.045)"/><rect x="128" y="176" width="8" height="8" fill="rgba(255,255,255,0.145)"/><rect x="352" y="144" width="8" height="8" fill="rgba(255,255,255,0.205)"/><rect x="16" y="8" width="8" height="8" fill="rgba(255,255,255,0.100)"/><rect x="128" y="504" width="8" height="8" fill="rgba(255,255,255,0.190)"/><rect x="160" y="40" width="8" height="8" fill="rgba(255,255,255,0.220)"/><rect x="136" y="352" width="8" height="8" fill="rgba(255,255,255,0.130)"/><rect x="208" y="16" width="8" height="8" fill="rgba(255,255,255,0.130)"/><rect x="96" y="280" width="8" height="8" fill="rgba(255,255,255,0.220)"/><rect x="40" y="360" width="8" height="8" fill="rgba(255,255,255,0.160)"/><rect x="200" y="136" width="8" height="8" fill="rgba(255,255,255,0.058)"/><rect x="72" y="488" width="8" height="8" fill="rgba(255,255,255,0.115)"/><rect x="80" y="16" width="8" height="8" fill="rgba(255,255,255,0.045)"/><rect x="64" y="384" width="8" height="8" fill="rgba(255,255,255,0.145)"/><rect x="384" y="136" width="8" height="8" fill="rgba(255,255,255,0.190)"/><rect x="368" y="328" width="8" height="8" fill="rgba(255,255,255,0.220)"/><rect x="24" y="336" width="8" height="8" fill="rgba(255,255,255,0.190)"/><rect x="336" y="72" width="8" height="8" fill="rgba(255,255,255,0.058)"/><rect x="280" y="192" width="8" height="8" fill="rgba(255,255,255,0.175)"/><rect x="392" y="152" width="8" height="8" fill="rgba(255,255,255,0.205)"/><rect x="176" y="360" width="8" height="8" fill="rgba(255,255,255,0.130)"/><rect x="384" y="360" width="8" height="8" fill="rgba(255,255,255,0.220)"/><rect x="192" y="72" width="8" height="8" fill="rgba(255,255,255,0.220)"/><rect x="32" y="168" width="8" height="8" fill="rgba(255,255,255,0.058)"/><rect x="272" y="104" width="8" height="8" fill="rgba(255,255,255,0.115)"/><rect x="144" y="240" width="8" height="8" fill="rgba(255,255,255,0.058)"/><rect x="304" y="312" width="8" height="8" fill="rgba(255,255,255,0.072)"/><rect x="192" y="64" width="8" height="8" fill="rgba(255,255,255,0.086)"/><rect x="184" y="472" width="8" height="8" fill="rgba(255,255,255,0.220)"/><rect x="128" y="288" width="8" height="8" fill="rgba(255,255,255,0.220)"/><rect x="352" y="0" width="8" height="8" fill="rgba(255,255,255,0.058)"/><rect x="280" y="392" width="8" height="8" fill="rgba(255,255,255,0.072)"/><rect x="360" y="304" width="8" height="8" fill="rgba(255,255,255,0.190)"/><rect x="88" y="440" width="8" height="8" fill="rgba(255,255,255,0.072)"/><rect x="448" y="272" width="8" height="8" fill="rgba(255,255,255,0.220)"/><rect x="168" y="384" width="8" height="8" fill="rgba(255,255,255,0.072)"/><rect x="432" y="104" width="8" height="8" fill="rgba(255,255,255,0.160)"/><rect x="248" y="248" width="8" height="8" fill="rgba(255,255,255,0.220)"/><rect x="80" y="208" width="8" height="8" fill="rgba(255,255,255,0.086)"/><rect x="136" y="448" width="8" height="8" fill="rgba(255,255,255,0.086)"/><rect x="496" y="128" width="8" height="8" fill="rgba(255,255,255,0.130)"/><rect x="248" y="128" width="8" height="8" fill="rgba(255,255,255,0.160)"/><rect x="224" y="184" width="8" height="8" fill="rgba(255,255,255,0.058)"/><rect x="304" y="496" width="8" height="8" fill="rgba(255,255,255,0.190)"/><rect x="184" y="304" width="8" height="8" fill="rgba(255,255,255,0.045)"/><rect x="48" y="440" width="8" height="8" fill="rgba(255,255,255,0.100)"/><rect x="296" y="264" width="8" height="8" fill="rgba(255,255,255,0.115)"/><rect x="16" y="472" width="8" height="8" fill="rgba(255,255,255,0.130)"/><rect x="192" y="184" width="8" height="8" fill="rgba(255,255,255,0.175)"/><rect x="168" y="224" width="8" height="8" fill="rgba(255,255,255,0.160)"/><rect x="40" y="336" width="8" height="8" fill="rgba(255,255,255,0.160)"/><rect x="72" y="64" width="8" height="8" fill="rgba(255,255,255,0.072)"/><rect x="240" y="488" width="8" height="8" fill="rgba(255,255,255,0.160)"/><rect x="224" y="32" width="8" height="8" fill="rgba(255,255,255,0.086)"/><rect x="144" y="376" width="8" height="8" fill="rgba(255,255,255,0.145)"/><rect x="32" y="304" width="8" height="8" fill="rgba(255,255,255,0.100)"/><rect x="32" y="368" width="8" height="8" fill="rgba(255,255,255,0.160)"/><rect x="200" y="288" width="8" height="8" fill="rgba(255,255,255,0.145)"/><rect x="168" y="440" width="8" height="8" fill="rgba(255,255,255,0.145)"/><rect x="264" y="72" width="8" height="8" fill="rgba(255,255,255,0.072)"/><rect x="280" y="456" width="8" height="8" fill="rgba(255,255,255,0.058)"/><rect x="376" y="216" width="8" height="8" fill="rgba(255,255,255,0.058)"/><rect x="112" y="0" width="8" height="8" fill="rgba(255,255,255,0.190)"/><rect x="272" y="0" width="8" height="8" fill="rgba(255,255,255,0.115)"/><rect x="32" y="128" width="8" height="8" fill="rgba(255,255,255,0.100)"/><rect x="304" y="392" width="8" height="8" fill="rgba(255,255,255,0.100)"/><rect x="8" y="0" width="8" height="8" fill="rgba(255,255,255,0.160)"/><rect x="360" y="112" width="8" height="8" fill="rgba(255,255,255,0.072)"/><rect x="384" y="152" width="8" height="8" fill="rgba(255,255,255,0.045)"/><rect x="496" y="184" width="8" height="8" fill="rgba(255,255,255,0.100)"/><rect x="136" y="176" width="8" height="8" fill="rgba(255,255,255,0.100)"/><rect x="280" y="120" width="8" height="8" fill="rgba(255,255,255,0.175)"/><rect x="480" y="392" width="8" height="8" fill="rgba(255,255,255,0.205)"/><rect x="192" y="448" width="8" height="8" fill="rgba(255,255,255,0.072)"/><rect x="104" y="48" width="8" height="8" fill="rgba(255,255,255,0.115)"/><rect x="368" y="448" width="8" height="8" fill="rgba(255,255,255,0.160)"/><rect x="144" y="0" width="8" height="8" fill="rgba(255,255,255,0.115)"/><rect x="208" y="392" width="8" height="8" fill="rgba(255,255,255,0.220)"/><rect x="456" y="304" width="8" height="8" fill="rgba(255,255,255,0.072)"/><rect x="176" y="328" width="8" height="8" fill="rgba(255,255,255,0.045)"/><rect x="240" y="112" width="8" height="8" fill="rgba(255,255,255,0.086)"/><rect x="144" y="312" width="8" height="8" fill="rgba(255,255,255,0.190)"/><rect x="64" y="200" width="8" height="8" fill="rgba(255,255,255,0.175)"/><rect x="408" y="200" width="8" height="8" fill="rgba(255,255,255,0.220)"/><rect x="200" y="392" width="8" height="8" fill="rgba(255,255,255,0.145)"/><rect x="424" y="0" width="8" height="8" fill="rgba(255,255,255,0.100)"/><rect x="168" y="416" width="8" height="8" fill="rgba(255,255,255,0.100)"/><rect x="344" y="336" width="8" height="8" fill="rgba(255,255,255,0.205)"/><rect x="320" y="440" width="8" height="8" fill="rgba(255,255,255,0.115)"/><rect x="152" y="480" width="8" height="8" fill="rgba(255,255,255,0.220)"/><rect x="152" y="432" width="8" height="8" fill="rgba(255,255,255,0.220)"/><rect x="56" y="280" width="8" height="8" fill="rgba(255,255,255,0.045)"/><rect x="16" y="32" width="8" height="8" fill="rgba(255,255,255,0.086)"/><rect x="384" y="80" width="8" height="8" fill="rgba(255,255,255,0.160)"/><rect x="240" y="48" width="8" height="8" fill="rgba(255,255,255,0.045)"/><rect x="312" y="448" width="8" height="8" fill="rgba(255,255,255,0.145)"/><rect x="144" y="160" width="8" height="8" fill="rgba(255,255,255,0.100)"/><rect x="304" y="368" width="8" height="8" fill="rgba(255,255,255,0.100)"/><rect x="128" y="144" width="8" height="8" fill="rgba(255,255,255,0.086)"/><rect x="176" y="376" width="8" height="8" fill="rgba(255,255,255,0.115)"/><rect x="368" y="264" width="8" height="8" fill="rgba(255,255,255,0.175)"/><rect x="448" y="112" width="8" height="8" fill="rgba(255,255,255,0.045)"/><rect x="136" y="16" width="8" height="8" fill="rgba(255,255,255,0.190)"/><rect x="464" y="304" width="8" height="8" fill="rgba(255,255,255,0.100)"/><rect x="368" y="80" width="8" height="8" fill="rgba(255,255,255,0.058)"/><rect x="24" y="400" width="8" height="8" fill="rgba(255,255,255,0.160)"/><rect x="64" y="336" width="8" height="8" fill="rgba(255,255,255,0.058)"/><rect x="368" y="216" width="8" height="8" fill="rgba(255,255,255,0.058)"/><rect x="240" y="280" width="8" height="8" fill="rgba(255,255,255,0.115)"/><rect x="352" y="456" width="8" height="8" fill="rgba(255,255,255,0.115)"/><rect x="0" y="72" width="8" height="8" fill="rgba(255,255,255,0.175)"/><rect x="280" y="152" width="8" height="8" fill="rgba(255,255,255,0.045)"/><rect x="240" y="248" width="8" height="8" fill="rgba(255,255,255,0.045)"/><rect x="344" y="0" width="8" height="8" fill="rgba(255,255,255,0.058)"/><rect x="8" y="440" width="8" height="8" fill="rgba(255,255,255,0.086)"/><rect x="328" y="128" width="8" height="8" fill="rgba(255,255,255,0.175)"/><rect x="144" y="440" width="8" height="8" fill="rgba(255,255,255,0.045)"/><rect x="112" y="280" width="8" height="8" fill="rgba(255,255,255,0.205)"/><rect x="480" y="336" width="8" height="8" fill="rgba(255,255,255,0.072)"/><rect x="456" y="440" width="8" height="8" fill="rgba(255,255,255,0.072)"/><rect x="224" y="96" width="8" height="8" fill="rgba(255,255,255,0.205)"/><rect x="16" y="256" width="8" height="8" fill="rgba(255,255,255,0.086)"/><rect x="488" y="200" width="8" height="8" fill="rgba(255,255,255,0.058)"/><rect x="192" y="352" width="8" height="8" fill="rgba(255,255,255,0.145)"/><rect x="240" y="336" width="8" height="8" fill="rgba(255,255,255,0.175)"/><rect x="392" y="448" width="8" height="8" fill="rgba(255,255,255,0.072)"/><rect x="464" y="472" width="8" height="8" fill="rgba(255,255,255,0.045)"/><rect x="416" y="88" width="8" height="8" fill="rgba(255,255,255,0.175)"/><rect x="472" y="392" width="8" height="8" fill="rgba(255,255,255,0.115)"/><rect x="456" y="200" width="8" height="8" fill="rgba(255,255,255,0.045)"/><rect x="72" y="432" width="8" height="8" fill="rgba(255,255,255,0.058)"/><rect x="440" y="360" width="8" height="8" fill="rgba(255,255,255,0.086)"/><rect x="424" y="320" width="8" height="8" fill="rgba(255,255,255,0.115)"/><rect x="312" y="368" width="8" height="8" fill="rgba(255,255,255,0.086)"/><rect x="280" y="136" width="8" height="8" fill="rgba(255,255,255,0.058)"/><rect x="96" y="400" width="8" height="8" fill="rgba(255,255,255,0.205)"/><rect x="336" y="40" width="8" height="8" fill="rgba(255,255,255,0.205)"/><rect x="208" y="168" width="8" height="8" fill="rgba(255,255,255,0.045)"/><rect x="64" y="72" width="8" height="8" fill="rgba(255,255,255,0.160)"/><rect x="56" y="344" width="8" height="8" fill="rgba(255,255,255,0.045)"/><rect x="432" y="360" width="8" height="8" fill="rgba(255,255,255,0.220)"/><rect x="448" y="176" width="8" height="8" fill="rgba(255,255,255,0.190)"/><rect x="200" y="440" width="8" height="8" fill="rgba(255,255,255,0.045)"/><rect x="472" y="232" width="8" height="8" fill="rgba(255,255,255,0.145)"/><rect x="328" y="216" width="8" height="8" fill="rgba(255,255,255,0.160)"/><rect x="424" y="208" width="8" height="8" fill="rgba(255,255,255,0.072)"/><rect x="16" y="504" width="8" height="8" fill="rgba(255,255,255,0.190)"/><rect x="16" y="144" width="8" height="8" fill="rgba(255,255,255,0.045)"/><rect x="296" y="232" width="8" height="8" fill="rgba(255,255,255,0.190)"/><rect x="40" y="424" width="8" height="8" fill="rgba(255,255,255,0.205)"/><rect x="40" y="232" width="8" height="8" fill="rgba(255,255,255,0.072)"/><rect x="400" y="256" width="8" height="8" fill="rgba(255,255,255,0.115)"/><rect x="128" y="240" width="8" height="8" fill="rgba(255,255,255,0.220)"/><rect x="192" y="288" width="8" height="8" fill="rgba(255,255,255,0.190)"/><rect x="56" y="128" width="8" height="8" fill="rgba(255,255,255,0.100)"/><rect x="320" y="272" width="8" height="8" fill="rgba(255,255,255,0.220)"/><rect x="408" y="408" width="8" height="8" fill="rgba(255,255,255,0.100)"/><rect x="320" y="80" width="8" height="8" fill="rgba(255,255,255,0.045)"/><rect x="384" y="440" width="8" height="8" fill="rgba(255,255,255,0.115)"/><rect x="104" y="96" width="8" height="8" fill="rgba(255,255,255,0.130)"/><rect x="160" y="496" width="8" height="8" fill="rgba(255,255,255,0.045)"/><rect x="256" y="344" width="8" height="8" fill="rgba(255,255,255,0.086)"/><rect x="400" y="336" width="8" height="8" fill="rgba(255,255,255,0.100)"/><rect x="352" y="56" width="8" height="8" fill="rgba(255,255,255,0.175)"/><rect x="256" y="384" width="8" height="8" fill="rgba(255,255,255,0.072)"/><rect x="432" y="24" width="8" height="8" fill="rgba(255,255,255,0.086)"/><rect x="296" y="384" width="8" height="8" fill="rgba(255,255,255,0.086)"/><rect x="224" y="408" width="8" height="8" fill="rgba(255,255,255,0.086)"/><rect x="88" y="368" width="8" height="8" fill="rgba(255,255,255,0.160)"/><rect x="440" y="168" width="8" height="8" fill="rgba(255,255,255,0.086)"/><rect x="272" y="176" width="8" height="8" fill="rgba(255,255,255,0.190)"/><rect x="248" y="448" width="8" height="8" fill="rgba(255,255,255,0.072)"/><rect x="32" y="480" width="8" height="8" fill="rgba(255,255,255,0.115)"/><rect x="208" y="296" width="8" height="8" fill="rgba(255,255,255,0.058)"/><rect x="272" y="304" width="8" height="8" fill="rgba(255,255,255,0.045)"/><rect x="176" y="408" width="8" height="8" fill="rgba(255,255,255,0.100)"/><rect x="48" y="112" width="8" height="8" fill="rgba(255,255,255,0.045)"/><rect x="144" y="112" width="8" height="8" fill="rgba(255,255,255,0.190)"/><rect x="256" y="96" width="8" height="8" fill="rgba(255,255,255,0.086)"/><rect x="288" y="400" width="8" height="8" fill="rgba(255,255,255,0.130)"/><rect x="208" y="176" width="8" height="8" fill="rgba(255,255,255,0.058)"/><rect x="80" y="312" width="8" height="8" fill="rgba(255,255,255,0.175)"/><rect x="376" y="128" width="8" height="8" fill="rgba(255,255,255,0.175)"/><rect x="240" y="24" width="8" height="8" fill="rgba(255,255,255,0.205)"/><rect x="472" y="64" width="8" height="8" fill="rgba(255,255,255,0.058)"/><rect x="8" y="376" width="8" height="8" fill="rgba(255,255,255,0.145)"/><rect x="432" y="456" width="8" height="8" fill="rgba(255,255,255,0.072)"/><rect x="456" y="168" width="8" height="8" fill="rgba(255,255,255,0.058)"/><rect x="224" y="40" width="8" height="8" fill="rgba(255,255,255,0.160)"/><rect x="344" y="464" width="8" height="8" fill="rgba(255,255,255,0.190)"/><rect x="312" y="280" width="8" height="8" fill="rgba(255,255,255,0.190)"/><rect x="192" y="280" width="8" height="8" fill="rgba(255,255,255,0.045)"/><rect x="240" y="152" width="8" height="8" fill="rgba(255,255,255,0.100)"/><rect x="464" y="352" width="8" height="8" fill="rgba(255,255,255,0.100)"/><rect x="216" y="160" width="8" height="8" fill="rgba(255,255,255,0.086)"/><rect x="264" y="472" width="8" height="8" fill="rgba(255,255,255,0.100)"/><rect x="384" y="120" width="8" height="8" fill="rgba(255,255,255,0.130)"/><rect x="312" y="208" width="8" height="8" fill="rgba(255,255,255,0.072)"/><rect x="504" y="96" width="8" height="8" fill="rgba(255,255,255,0.086)"/><rect x="200" y="264" width="8" height="8" fill="rgba(255,255,255,0.058)"/><rect x="72" y="88" width="8" height="8" fill="rgba(255,255,255,0.130)"/><rect x="384" y="456" width="8" height="8" fill="rgba(255,255,255,0.145)"/><rect x="160" y="152" width="8" height="8" fill="rgba(255,255,255,0.072)"/><rect x="64" y="488" width="8" height="8" fill="rgba(255,255,255,0.145)"/><rect x="112" y="352" width="8" height="8" fill="rgba(255,255,255,0.220)"/><rect x="328" y="224" width="8" height="8" fill="rgba(255,255,255,0.130)"/><rect x="8" y="480" width="8" height="8" fill="rgba(255,255,255,0.072)"/><rect x="216" y="312" width="8" height="8" fill="rgba(255,255,255,0.100)"/><rect x="96" y="448" width="8" height="8" fill="rgba(255,255,255,0.058)"/><rect x="352" y="400" width="8" height="8" fill="rgba(255,255,255,0.145)"/><rect x="96" y="16" width="8" height="8" fill="rgba(255,255,255,0.045)"/><rect x="168" y="104" width="8" height="8" fill="rgba(255,255,255,0.205)"/><rect x="488" y="216" width="8" height="8" fill="rgba(255,255,255,0.175)"/><rect x="272" y="168" width="8" height="8" fill="rgba(255,255,255,0.130)"/><rect x="408" y="328" width="8" height="8" fill="rgba(255,255,255,0.045)"/><rect x="104" y="328" width="8" height="8" fill="rgba(255,255,255,0.058)"/><rect x="152" y="248" width="8" height="8" fill="rgba(255,255,255,0.086)"/><rect x="360" y="136" width="8" height="8" fill="rgba(255,255,255,0.175)"/><rect x="264" y="0" width="8" height="8" fill="rgba(255,255,255,0.115)"/><rect x="296" y="16" width="8" height="8" fill="rgba(255,255,255,0.145)"/><rect x="432" y="424" width="8" height="8" fill="rgba(255,255,255,0.205)"/><rect x="368" y="472" width="8" height="8" fill="rgba(255,255,255,0.086)"/><rect x="144" y="232" width="8" height="8" fill="rgba(255,255,255,0.190)"/><rect x="376" y="496" width="8" height="8" fill="rgba(255,255,255,0.190)"/><rect x="288" y="88" width="8" height="8" fill="rgba(255,255,255,0.130)"/><rect x="144" y="200" width="8" height="8" fill="rgba(255,255,255,0.190)"/><rect x="472" y="408" width="8" height="8" fill="rgba(255,255,255,0.175)"/><rect x="448" y="304" width="8" height="8" fill="rgba(255,255,255,0.145)"/><rect x="352" y="264" width="8" height="8" fill="rgba(255,255,255,0.072)"/><rect x="408" y="336" width="8" height="8" fill="rgba(255,255,255,0.072)"/><rect x="216" y="256" width="8" height="8" fill="rgba(255,255,255,0.086)"/><rect x="104" y="352" width="8" height="8" fill="rgba(255,255,255,0.130)"/><rect x="120" y="192" width="8" height="8" fill="rgba(255,255,255,0.045)"/><rect x="40" y="160" width="8" height="8" fill="rgba(255,255,255,0.220)"/><rect x="272" y="128" width="8" height="8" fill="rgba(255,255,255,0.072)"/><rect x="504" y="328" width="8" height="8" fill="rgba(255,255,255,0.072)"/><rect x="200" y="456" width="8" height="8" fill="rgba(255,255,255,0.072)"/><rect x="176" y="136" width="8" height="8" fill="rgba(255,255,255,0.175)"/><rect x="408" y="448" width="8" height="8" fill="rgba(255,255,255,0.115)"/><rect x="152" y="24" width="8" height="8" fill="rgba(255,255,255,0.145)"/><rect x="168" y="168" width="8" height="8" fill="rgba(255,255,255,0.045)"/><rect x="216" y="136" width="8" height="8" fill="rgba(255,255,255,0.045)"/><rect x="192" y="392" width="8" height="8" fill="rgba(255,255,255,0.160)"/><rect x="344" y="168" width="8" height="8" fill="rgba(255,255,255,0.086)"/><rect x="304" y="104" width="8" height="8" fill="rgba(255,255,255,0.072)"/><rect x="456" y="448" width="8" height="8" fill="rgba(255,255,255,0.115)"/><rect x="64" y="328" width="8" height="8" fill="rgba(255,255,255,0.160)"/><rect x="384" y="368" width="8" height="8" fill="rgba(255,255,255,0.086)"/><rect x="104" y="104" width="8" height="8" fill="rgba(255,255,255,0.145)"/><rect x="320" y="168" width="8" height="8" fill="rgba(255,255,255,0.175)"/><rect x="136" y="184" width="8" height="8" fill="rgba(255,255,255,0.045)"/><rect x="248" y="472" width="8" height="8" fill="rgba(255,255,255,0.160)"/><rect x="384" y="288" width="8" height="8" fill="rgba(255,255,255,0.160)"/><rect x="440" y="64" width="8" height="8" fill="rgba(255,255,255,0.086)"/><rect x="384" y="504" width="8" height="8" fill="rgba(255,255,255,0.058)"/><rect x="0" y="504" width="8" height="8" fill="rgba(255,255,255,0.190)"/><rect x="96" y="384" width="8" height="8" fill="rgba(255,255,255,0.130)"/><rect x="32" y="56" width="8" height="8" fill="rgba(255,255,255,0.115)"/><rect x="464" y="432" width="8" height="8" fill="rgba(255,255,255,0.175)"/><rect x="48" y="456" width="8" height="8" fill="rgba(255,255,255,0.205)"/><rect x="336" y="64" width="8" height="8" fill="rgba(255,255,255,0.100)"/><rect x="208" y="136" width="8" height="8" fill="rgba(255,255,255,0.145)"/><rect x="16" y="440" width="8" height="8" fill="rgba(255,255,255,0.115)"/><rect x="24" y="456" width="8" height="8" fill="rgba(255,255,255,0.072)"/><rect x="408" y="88" width="8" height="8" fill="rgba(255,255,255,0.145)"/><rect x="488" y="272" width="8" height="8" fill="rgba(255,255,255,0.100)"/><rect x="304" y="456" width="8" height="8" fill="rgba(255,255,255,0.160)"/><rect x="312" y="464" width="8" height="8" fill="rgba(255,255,255,0.205)"/><rect x="448" y="32" width="8" height="8" fill="rgba(255,255,255,0.058)"/><rect x="416" y="224" width="8" height="8" fill="rgba(255,255,255,0.100)"/><rect x="472" y="480" width="8" height="8" fill="rgba(255,255,255,0.045)"/><rect x="80" y="56" width="8" height="8" fill="rgba(255,255,255,0.100)"/><rect x="56" y="112" width="8" height="8" fill="rgba(255,255,255,0.130)"/><rect x="272" y="32" width="8" height="8" fill="rgba(255,255,255,0.160)"/><rect x="160" y="160" width="8" height="8" fill="rgba(255,255,255,0.160)"/><rect x="8" y="48" width="8" height="8" fill="rgba(255,255,255,0.220)"/><rect x="280" y="56" width="8" height="8" fill="rgba(255,255,255,0.160)"/><rect x="496" y="320" width="8" height="8" fill="rgba(255,255,255,0.130)"/><rect x="416" y="376" width="8" height="8" fill="rgba(255,255,255,0.115)"/><rect x="40" y="128" width="8" height="8" fill="rgba(255,255,255,0.045)"/><rect x="416" y="0" width="8" height="8" fill="rgba(255,255,255,0.190)"/><rect x="160" y="440" width="8" height="8" fill="rgba(255,255,255,0.045)"/><rect x="48" y="128" width="8" height="8" fill="rgba(255,255,255,0.145)"/><rect x="280" y="200" width="8" height="8" fill="rgba(255,255,255,0.145)"/><rect x="56" y="336" width="8" height="8" fill="rgba(255,255,255,0.205)"/><rect x="312" y="400" width="8" height="8" fill="rgba(255,255,255,0.175)"/><rect x="96" y="464" width="8" height="8" fill="rgba(255,255,255,0.045)"/><rect x="328" y="424" width="8" height="8" fill="rgba(255,255,255,0.086)"/><rect x="88" y="416" width="8" height="8" fill="rgba(255,255,255,0.100)"/><rect x="496" y="448" width="8" height="8" fill="rgba(255,255,255,0.160)"/><rect x="48" y="104" width="8" height="8" fill="rgba(255,255,255,0.190)"/><rect x="176" y="384" width="8" height="8" fill="rgba(255,255,255,0.220)"/><rect x="152" y="392" width="8" height="8" fill="rgba(255,255,255,0.175)"/><rect x="32" y="112" width="8" height="8" fill="rgba(255,255,255,0.205)"/><rect x="0" y="440" width="8" height="8" fill="rgba(255,255,255,0.190)"/><rect x="296" y="440" width="8" height="8" fill="rgba(255,255,255,0.130)"/><rect x="496" y="48" width="8" height="8" fill="rgba(255,255,255,0.130)"/><rect x="40" y="264" width="8" height="8" fill="rgba(255,255,255,0.086)"/><rect x="400" y="0" width="8" height="8" fill="rgba(255,255,255,0.130)"/><rect x="424" y="336" width="8" height="8" fill="rgba(255,255,255,0.086)"/><rect x="472" y="208" width="8" height="8" fill="rgba(255,255,255,0.145)"/><rect x="496" y="432" width="8" height="8" fill="rgba(255,255,255,0.086)"/><rect x="256" y="240" width="8" height="8" fill="rgba(255,255,255,0.130)"/><rect x="48" y="448" width="8" height="8" fill="rgba(255,255,255,0.130)"/><rect x="480" y="128" width="8" height="8" fill="rgba(255,255,255,0.072)"/><rect x="64" y="296" width="8" height="8" fill="rgba(255,255,255,0.058)"/><rect x="400" y="160" width="8" height="8" fill="rgba(255,255,255,0.145)"/><rect x="272" y="24" width="8" height="8" fill="rgba(255,255,255,0.130)"/><rect x="408" y="112" width="8" height="8" fill="rgba(255,255,255,0.045)"/><rect x="344" y="264" width="8" height="8" fill="rgba(255,255,255,0.145)"/><rect x="232" y="0" width="8" height="8" fill="rgba(255,255,255,0.086)"/><rect x="440" y="288" width="8" height="8" fill="rgba(255,255,255,0.160)"/><rect x="48" y="168" width="8" height="8" fill="rgba(255,255,255,0.220)"/><rect x="368" y="368" width="8" height="8" fill="rgba(255,255,255,0.145)"/><rect x="496" y="8" width="8" height="8" fill="rgba(255,255,255,0.086)"/><rect x="272" y="424" width="8" height="8" fill="rgba(255,255,255,0.045)"/><rect x="360" y="232" width="8" height="8" fill="rgba(255,255,255,0.100)"/><rect x="304" y="152" width="8" height="8" fill="rgba(255,255,255,0.100)"/><rect x="112" y="192" width="8" height="8" fill="rgba(255,255,255,0.130)"/><rect x="464" y="16" width="8" height="8" fill="rgba(255,255,255,0.160)"/><rect x="264" y="248" width="8" height="8" fill="rgba(255,255,255,0.205)"/><rect x="432" y="224" width="8" height="8" fill="rgba(255,255,255,0.045)"/><rect x="352" y="160" width="8" height="8" fill="rgba(255,255,255,0.086)"/><rect x="408" y="192" width="8" height="8" fill="rgba(255,255,255,0.175)"/><rect x="320" y="480" width="8" height="8" fill="rgba(255,255,255,0.205)"/><rect x="456" y="104" width="8" height="8" fill="rgba(255,255,255,0.145)"/><rect x="384" y="160" width="8" height="8" fill="rgba(255,255,255,0.058)"/><rect x="472" y="128" width="8" height="8" fill="rgba(255,255,255,0.130)"/><rect x="240" y="368" width="8" height="8" fill="rgba(255,255,255,0.130)"/><rect x="312" y="48" width="8" height="8" fill="rgba(255,255,255,0.115)"/><rect x="496" y="344" width="8" height="8" fill="rgba(255,255,255,0.072)"/><rect x="72" y="312" width="8" height="8" fill="rgba(255,255,255,0.205)"/><rect x="264" y="416" width="8" height="8" fill="rgba(255,255,255,0.190)"/><rect x="328" y="72" width="8" height="8" fill="rgba(255,255,255,0.160)"/><rect x="488" y="232" width="8" height="8" fill="rgba(255,255,255,0.145)"/><rect x="496" y="24" width="8" height="8" fill="rgba(255,255,255,0.115)"/><rect x="496" y="248" width="8" height="8" fill="rgba(255,255,255,0.175)"/><rect x="344" y="392" width="8" height="8" fill="rgba(255,255,255,0.145)"/><rect x="216" y="416" width="8" height="8" fill="rgba(255,255,255,0.190)"/><rect x="104" y="248" width="8" height="8" fill="rgba(255,255,255,0.145)"/><rect x="160" y="144" width="8" height="8" fill="rgba(255,255,255,0.115)"/><rect x="48" y="432" width="8" height="8" fill="rgba(255,255,255,0.190)"/><rect x="304" y="408" width="8" height="8" fill="rgba(255,255,255,0.145)"/><rect x="88" y="48" width="8" height="8" fill="rgba(255,255,255,0.160)"/><rect x="72" y="120" width="8" height="8" fill="rgba(255,255,255,0.190)"/><rect x="328" y="64" width="8" height="8" fill="rgba(255,255,255,0.190)"/><rect x="392" y="272" width="8" height="8" fill="rgba(255,255,255,0.115)"/><rect x="264" y="368" width="8" height="8" fill="rgba(255,255,255,0.058)"/><rect x="32" y="176" width="8" height="8" fill="rgba(255,255,255,0.130)"/><rect x="440" y="400" width="8" height="8" fill="rgba(255,255,255,0.145)"/><rect x="152" y="504" width="8" height="8" fill="rgba(255,255,255,0.072)"/><rect x="48" y="464" width="8" height="8" fill="rgba(255,255,255,0.220)"/><rect x="160" y="80" width="8" height="8" fill="rgba(255,255,255,0.045)"/><rect x="120" y="368" width="8" height="8" fill="rgba(255,255,255,0.175)"/><rect x="248" y="496" width="8" height="8" fill="rgba(255,255,255,0.045)"/><rect x="160" y="264" width="8" height="8" fill="rgba(255,255,255,0.115)"/><rect x="112" y="56" width="8" height="8" fill="rgba(255,255,255,0.175)"/><rect x="320" y="120" width="8" height="8" fill="rgba(255,255,255,0.045)"/><rect x="456" y="424" width="8" height="8" fill="rgba(255,255,255,0.072)"/><rect x="128" y="496" width="8" height="8" fill="rgba(255,255,255,0.145)"/><rect x="384" y="8" width="8" height="8" fill="rgba(255,255,255,0.205)"/><rect x="128" y="256" width="8" height="8" fill="rgba(255,255,255,0.100)"/><rect x="480" y="232" width="8" height="8" fill="rgba(255,255,255,0.145)"/><rect x="416" y="304" width="8" height="8" fill="rgba(255,255,255,0.115)"/><rect x="232" y="352" width="8" height="8" fill="rgba(255,255,255,0.190)"/><rect x="104" y="216" width="8" height="8" fill="rgba(255,255,255,0.220)"/><rect x="168" y="408" width="8" height="8" fill="rgba(255,255,255,0.160)"/><rect x="184" y="456" width="8" height="8" fill="rgba(255,255,255,0.205)"/><rect x="328" y="376" width="8" height="8" fill="rgba(255,255,255,0.130)"/><rect x="136" y="240" width="8" height="8" fill="rgba(255,255,255,0.058)"/><rect x="296" y="496" width="8" height="8" fill="rgba(255,255,255,0.190)"/><rect x="440" y="40" width="8" height="8" fill="rgba(255,255,255,0.175)"/><rect x="344" y="128" width="8" height="8" fill="rgba(255,255,255,0.145)"/><rect x="168" y="136" width="8" height="8" fill="rgba(255,255,255,0.058)"/><rect x="208" y="232" width="8" height="8" fill="rgba(255,255,255,0.086)"/><rect x="120" y="240" width="8" height="8" fill="rgba(255,255,255,0.205)"/><rect x="384" y="64" width="8" height="8" fill="rgba(255,255,255,0.175)"/><rect x="176" y="448" width="8" height="8" fill="rgba(255,255,255,0.058)"/><rect x="224" y="496" width="8" height="8" fill="rgba(255,255,255,0.058)"/><rect x="88" y="504" width="8" height="8" fill="rgba(255,255,255,0.130)"/><rect x="312" y="296" width="8" height="8" fill="rgba(255,255,255,0.145)"/><rect x="104" y="472" width="8" height="8" fill="rgba(255,255,255,0.205)"/><rect x="272" y="280" width="8" height="8" fill="rgba(255,255,255,0.100)"/><rect x="152" y="272" width="8" height="8" fill="rgba(255,255,255,0.058)"/><rect x="504" y="248" width="8" height="8" fill="rgba(255,255,255,0.205)"/><rect x="72" y="440" width="8" height="8" fill="rgba(255,255,255,0.160)"/><rect x="128" y="72" width="8" height="8" fill="rgba(255,255,255,0.130)"/><rect x="296" y="48" width="8" height="8" fill="rgba(255,255,255,0.072)"/><rect x="168" y="24" width="8" height="8" fill="rgba(255,255,255,0.205)"/><rect x="272" y="496" width="8" height="8" fill="rgba(255,255,255,0.115)"/><rect x="120" y="40" width="8" height="8" fill="rgba(255,255,255,0.130)"/><rect x="208" y="376" width="8" height="8" fill="rgba(255,255,255,0.160)"/><rect x="376" y="336" width="8" height="8" fill="rgba(255,255,255,0.205)"/><rect x="120" y="352" width="8" height="8" fill="rgba(255,255,255,0.190)"/><rect x="280" y="88" width="8" height="8" fill="rgba(255,255,255,0.100)"/><rect x="128" y="304" width="8" height="8" fill="rgba(255,255,255,0.100)"/><rect x="432" y="240" width="8" height="8" fill="rgba(255,255,255,0.175)"/><rect x="0" y="56" width="8" height="8" fill="rgba(255,255,255,0.130)"/><rect x="224" y="320" width="8" height="8" fill="rgba(255,255,255,0.100)"/><rect x="488" y="0" width="8" height="8" fill="rgba(255,255,255,0.058)"/><rect x="24" y="448" width="8" height="8" fill="rgba(255,255,255,0.115)"/><rect x="392" y="488" width="8" height="8" fill="rgba(255,255,255,0.100)"/><rect x="408" y="264" width="8" height="8" fill="rgba(255,255,255,0.190)"/><rect x="232" y="424" width="8" height="8" fill="rgba(255,255,255,0.115)"/><rect x="480" y="168" width="8" height="8" fill="rgba(255,255,255,0.190)"/><rect x="408" y="432" width="8" height="8" fill="rgba(255,255,255,0.205)"/><rect x="40" y="184" width="8" height="8" fill="rgba(255,255,255,0.220)"/><rect x="48" y="416" width="8" height="8" fill="rgba(255,255,255,0.160)"/><rect x="504" y="352" width="8" height="8" fill="rgba(255,255,255,0.058)"/><rect x="200" y="80" width="8" height="8" fill="rgba(255,255,255,0.072)"/><rect x="296" y="400" width="8" height="8" fill="rgba(255,255,255,0.205)"/></svg>